<?xml version="1.0" encoding="utf-8"?>
<!-- Generator: Adobe Illustrator 14.0.0, SVG Export Plug-In . SVG Version: 6.00 Build 43363)  -->
<!DOCTYPE svg PUBLIC "-//W3C//DTD SVG 1.1//EN" "http://www.w3.org/Graphics/SVG/1.1/DTD/svg11.dtd">
<svg version="1.1" id="Ebene_1" xmlns="http://www.w3.org/2000/svg" xmlns:xlink="http://www.w3.org/1999/xlink" x="0px" y="0px"
	 width="841.89px" height="841.89px" viewBox="0 0 841.89 841.89" enable-background="new 0 0 841.89 841.89" xml:space="preserve">
<g>
	<defs>
		<rect id="SVGID_1_" x="20.671" y="21.04" width="800.546" height="799.81"/>
	</defs>
	<clipPath id="SVGID_2_">
		<use xlink:href="#SVGID_1_"  overflow="visible"/>
	</clipPath>
	<path clip-path="url(#SVGID_2_)" fill="#F3E3BC" d="M818.895,741.345c0,43.023-34.883,77.906-77.906,77.906H98.577
		c-43.023,0-77.906-34.883-77.906-77.906V98.946c0-43.027,34.883-77.903,77.906-77.903h642.411
		c43.023,0,77.906,34.876,77.906,77.903V741.345z"/>
	<path clip-path="url(#SVGID_2_)" fill="#79C09D" d="M20.671,505.46v237.735c0,43.023,37.204,76.609,80.241,76.609h642.398
		c43.023,0,75.47-34.713,75.47-77.735v-402.44c0,0-22.608,123.558-67.976,191.644c-12.359,18.557-102.781,103.47-147.14,93.323
		c-92.041-21.047-156.388-114.341-204.574-134.848c-32.103-13.652-59.684,23.61-59.684,23.61s-50.238,141.077-112.837,91.817
		c-50.304-39.6-64.139-54.32-70.997-68.487c-12.794-26.395-58.659-66.605-58.659-66.605
		C46.652,447.442,45.448,469.512,20.671,505.46"/>
	<path clip-path="url(#SVGID_2_)" fill="#4C9DB6" d="M20.671,505.062c17.82-20.219,41.361-41.439,58.094-35.715
		c16.893,5.164,32.839,24.307,51.435,49.143c11.539,12.775,26.214,44.373,60.833,77.143c17.251,14.16,33.453,33.285,67.054,39.024
		c18.858,2.337,36.843-12.245,43.33-24.001c8.034-12.125,12.825-23.881,17.785-34.973c16.107-45.722,46.5-76.588,72.994-72.706
		c25.257,4.212,41.949,22.673,41.75,21.256c0.078-0.004,15.903,12.882,40.146,37.23c24.661,21.327,57.016,64.464,115.588,71.399
		c52.008,7.444,109.67-14.159,142.053-47.459c33.435-32.34,49.65-66.225,57.734-82.388c27.815-61.502,28.276-108.833,29.222-163.665
		c-19.548,51.418-29.812,93.988-55.965,150.744c-7.479,14.896-22.808,45.932-51.519,73.566
		c-28.113,28.228-73.46,45.449-118.514,39.469c-41.354-3.3-73.524-40.673-97.816-62.977c-23.944-24.058-42.263-39.141-42.263-39.017
		c-1.18,1.762-14.683-19.405-57.46-27.776c-23.781-1.971-45.951,7.771-64.867,26.1c-18.178,18.256-28.737,42.146-38.433,64.18
		c-9.113,22.134-21.002,44.516-31.53,41.184c-14.918-1.697-34.594-17.85-49.048-31.207c-28.372-26.058-45.449-59.527-57.29-72.912
		c-20.224-25.643-40.153-49.218-72.158-52.929C47.686,447.396,30.738,481.541,20.671,505.062"/>
	<path clip-path="url(#SVGID_2_)" fill="#DB5A4B" d="M310.091,296.017c0.403-68.523,41.287-119.836,105.533-119.836
		c69.271,0,102.783,51.327,103.188,120.965c0.419,71.563-102.793,205.587-102.793,205.587S309.668,368.709,310.091,296.017"/>
	<path clip-path="url(#SVGID_2_)" fill="none" stroke="#000000" stroke-width="6.4916" d="M310.091,296.017
		c0.403-68.523,41.287-119.836,105.533-119.836c69.271,0,102.783,51.327,103.188,120.965
		c0.419,71.563-102.793,205.587-102.793,205.587S309.668,368.709,310.091,296.017z"/>
	<path clip-path="url(#SVGID_2_)" d="M466.762,297.728c0,28.242-22.9,51.138-51.137,51.138c-28.249,0-51.136-22.896-51.136-51.138
		c0-28.249,22.888-51.149,51.136-51.149C443.861,246.579,466.762,269.479,466.762,297.728"/>
</g>
</svg>
