<?xml version="1.0" encoding="utf-8"?>
<!-- Generator: Adobe Illustrator 23.0.1, SVG Export Plug-In . SVG Version: 6.00 Build 0)  -->
<svg version="1.1" id="Ebene_2" xmlns="http://www.w3.org/2000/svg" xmlns:xlink="http://www.w3.org/1999/xlink" x="0px" y="0px"
	 viewBox="0 0 841.9 875.5" style="enable-background:new 0 0 841.9 875.5;" xml:space="preserve">
<style type="text/css">
	.Grün_x0020_bogenförmig{fill:url(#SVGID_1_);stroke:#FFFFFF;stroke-width:0.25;stroke-miterlimit:1;}
	.st0{clip-path:url(#SVGID_3_);fill:#F3E4BD;}
	.st1{clip-path:url(#SVGID_3_);fill:#79C09E;}
	.st2{clip-path:url(#SVGID_3_);fill:#4D9EB7;}
	.st3{clip-path:url(#SVGID_3_);fill:#DB5A4B;}
	.st4{clip-path:url(#SVGID_3_);fill:none;stroke:#000000;stroke-width:6.4916;}
	.st5{clip-path:url(#SVGID_3_);}
	.st6{fill:#F3E4BD;}
</style>
<linearGradient id="SVGID_1_" gradientUnits="userSpaceOnUse" x1="0" y1="842.2334" x2="0.7071" y2="841.5262">
	<stop  offset="0" style="stop-color:#259E2E"/>
	<stop  offset="0.9831" style="stop-color:#1C381D"/>
</linearGradient>
<g>
	<defs>
		<rect id="SVGID_2_" x="22.2" y="34.1" width="800.5" height="1068.8"/>
	</defs>
	<clipPath id="SVGID_3_">
		<use xlink:href="#SVGID_2_"  style="overflow:visible;"/>
	</clipPath>
	<path class="st0" d="M820.4,754.4c0,43-34.9,77.9-77.9,77.9H100.1c-43,0-77.9-34.9-77.9-77.9V112c0-43,34.9-77.9,77.9-77.9h642.4
		c43,0,77.9,34.9,77.9,77.9V754.4z"/>
	<path class="st1" d="M22.2,518.5v237.7c0,43,37.2,76.6,80.2,76.6h642.4c43,0,75.5-34.7,75.5-77.7V352.7c0,0-22.6,123.6-68,191.6
		c-12.4,18.6-102.8,103.5-147.1,93.3c-92-21-156.4-114.3-204.6-134.8c-32.1-13.7-59.7,23.6-59.7,23.6s-50.2,141.1-112.8,91.8
		c-50.3-39.6-64.1-54.3-71-68.5c-12.8-26.4-58.7-66.6-58.7-66.6C48.2,460.5,47,482.5,22.2,518.5"/>
	<path class="st2" d="M22.2,518.1c17.8-20.2,41.4-41.4,58.1-35.7c16.9,5.2,32.8,24.3,51.4,49.1c11.5,12.8,26.2,44.4,60.8,77.1
		c17.3,14.2,33.5,33.3,67.1,39c18.9,2.3,36.8-12.2,43.3-24c8-12.1,12.8-23.9,17.8-35c16.1-45.7,46.5-76.6,73-72.7
		c25.3,4.2,41.9,22.7,41.8,21.3c0.1,0,15.9,12.9,40.1,37.2c24.7,21.3,57,64.5,115.6,71.4c52,7.4,109.7-14.2,142.1-47.5
		c33.4-32.3,49.7-66.2,57.7-82.4c27.8-61.5,28.3-108.8,29.2-163.7c-19.5,51.4-29.8,94-56,150.7c-7.5,14.9-22.8,45.9-51.5,73.6
		c-28.1,28.2-73.5,45.4-118.5,39.5c-41.4-3.3-73.5-40.7-97.8-63c-23.9-24.1-42.3-39.1-42.3-39c-1.2,1.8-14.7-19.4-57.5-27.8
		c-23.8-2-46,7.8-64.9,26.1c-18.2,18.3-28.7,42.1-38.4,64.2c-9.1,22.1-21,44.5-31.5,41.2c-14.9-1.7-34.6-17.8-49-31.2
		c-28.4-26.1-45.4-59.5-57.3-72.9c-20.2-25.6-40.2-49.2-72.2-52.9C49.2,460.4,32.3,494.6,22.2,518.1"/>
	<path class="st3" d="M311.6,309c0.4-68.5,41.3-119.8,105.5-119.8c69.3,0,102.8,51.3,103.2,121c0.4,71.6-102.8,205.6-102.8,205.6
		S311.2,381.7,311.6,309"/>
	<path class="st4" d="M311.6,309c0.4-68.5,41.3-119.8,105.5-119.8c69.3,0,102.8,51.3,103.2,121c0.4,71.6-102.8,205.6-102.8,205.6
		S311.2,381.7,311.6,309z"/>
	<path class="st5" d="M468.3,310.8c0,28.2-22.9,51.1-51.1,51.1c-28.2,0-51.1-22.9-51.1-51.1c0-28.2,22.9-51.1,51.1-51.1
		C445.4,259.6,468.3,282.5,468.3,310.8"/>
</g>
<g>
	<g>
		<path class="st6" d="M77.4,774.2L49.3,669.1H64c8.2,34.4,19.5,77.9,21.5,89.9h0.2c2.8-13.6,17.2-63.1,24.1-89.9h13.6
			c6.3,23.5,20.6,76.8,23,89.4h0.2c3.4-18.2,18-67.8,23.9-89.4H184l-30.7,105.1h-15c-6.4-24.2-19.9-74.3-22.4-86.8h-0.2
			c-3.1,15.7-16.7,62.7-23.4,86.8H77.4z"/>
		<path class="st6" d="M265.1,751.9c0,7.5,0.1,17.8,0.2,22.3h-12.9c-0.3-2-0.5-6.7-0.5-11.5c-3.8,8.5-11.1,13.3-23.2,13.3
			c-12.9,0-25.3-6.4-25.3-28v-50.4h13.1v47.5c0,10.1,3.2,19.3,15.9,19.3c14.1,0,19.5-7.8,19.5-26.9v-39.9h13.2V751.9z"/>
		<path class="st6" d="M306.1,764.7v39.6h-13.2v-88c0-6.2,0-12.7-0.2-18.7h12.9c0.3,2.5,0.5,7.2,0.5,12c4.1-7.7,11.9-13.9,25-13.9
			c17.7,0,30.6,14.8,30.6,38.1c0,27.3-14.8,42.1-33.3,42.1C316,776,309.5,770.8,306.1,764.7z M348.1,734.5
			c0-16.2-7.4-27.3-20.5-27.3c-15.9,0-22.1,10-22.1,28.6c0,18.1,5.1,29.1,21.1,29.1C340.6,764.9,348.1,753.3,348.1,734.5z"/>
		<path class="st6" d="M397.3,764.7v39.6h-13.2v-88c0-6.2,0-12.7-0.2-18.7h12.9c0.3,2.5,0.5,7.2,0.5,12c4.1-7.7,11.9-13.9,25-13.9
			c17.7,0,30.6,14.8,30.6,38.1c0,27.3-14.8,42.1-33.3,42.1C407.2,776,400.7,770.8,397.3,764.7z M439.3,734.5
			c0-16.2-7.4-27.3-20.5-27.3c-15.9,0-22.1,10-22.1,28.6c0,18.1,5.1,29.1,21.1,29.1C431.8,764.9,439.3,753.3,439.3,734.5z"/>
		<path class="st6" d="M468.1,737.2c4.1-13,6.7-30.2,7-39.9h13.7c-0.9,12.6-5.2,30.2-9.7,39.9H468.1z"/>
		<path class="st6" d="M510.7,716.9c0-6.6,0-13.4-0.2-19.3h12.9c0.4,2.3,0.6,10.3,0.5,12.6c3.1-6.6,9.3-14.4,24.1-14.4
			c14.3,0,25.6,8.8,25.6,29.1v49.2h-13.2v-47.6c0-11.6-4.5-19.4-16.2-19.4c-14.4,0-20.3,11-20.3,26.4v40.5h-13.2V716.9z"/>
		<path class="st6" d="M594,737.2c4.1-13,6.7-30.2,7-39.9h13.7c-0.9,12.6-5.2,30.2-9.7,39.9H594z"/>
		<path class="st6" d="M699.7,767.3c0,24.5-10.1,38.5-35.1,38.5c-23.2,0-30.4-13-31.7-23.4h13.5c2.2,8.4,9,12.8,18.8,12.8
			c17.4,0,21.7-11,21.7-28.7v-6.2c-4.1,8.6-11.1,13.4-23.9,13.4c-18.8,0-31.7-15.4-31.7-37.8c0-25,14.5-40.2,33.1-40.2
			c14.6,0,20.8,6.9,22.6,12c0.2-3.5,0.5-8.5,0.6-10.1h12.5c-0.1,4.4-0.2,14.8-0.2,22.1V767.3z M644.9,735.5
			c0,16.2,8.4,27.1,20.9,27.1c16.5,0,21.4-11.1,21.4-28.1c0-17.2-4.5-27.4-20.9-27.4C652.1,707,644.9,718.9,644.9,735.5z"/>
		<path class="st6" d="M793.1,735.8c0,22.1-12.6,40.2-36.1,40.2c-21.9,0-35.2-17-35.2-40c0-22.6,13-40.2,36.1-40.2
			C779.2,695.8,793.1,711.7,793.1,735.8z M735.5,735.9c0,16.8,8.4,29,22.1,29c14,0,21.9-11.6,21.9-29c0-17.2-7.8-29.1-22.2-29.1
			C743,706.9,735.5,718.4,735.5,735.9z"/>
	</g>
</g>
</svg>
