<?xml version="1.0" encoding="UTF-8"?>
<svg xmlns="http://www.w3.org/2000/svg" xmlns:xlink="http://www.w3.org/1999/xlink" width="200pt" height="320pt" viewBox="0 0 200 320" version="1.1">
<g id="surface1">
<path style="fill-rule:nonzero;fill:rgb(100%,100%,100%);fill-opacity:1;stroke-width:1;stroke-linecap:butt;stroke-linejoin:miter;stroke:rgb(0%,0%,0%);stroke-opacity:1;stroke-miterlimit:4;" d="M 13.808984 10.058203 C 13.808984 12.174609 12.103516 13.890234 10 13.890234 C 7.896484 13.890234 6.191016 12.174609 6.191016 10.058203 C 6.191016 7.941797 7.896484 6.225781 10 6.225781 C 12.103516 6.225781 13.808984 7.941797 13.808984 10.058203 Z M 10 0.477734 C 4.740625 0.477734 0.477734 4.766797 0.477734 10.058203 C 0.477734 16.764453 10 31.135156 10 31.135156 C 10 31.135156 19.522266 16.764453 19.522266 10.058203 C 19.522266 4.766797 15.258203 0.477734 10 0.477734 Z M 10 0.477734 " transform="matrix(10,0,0,10,0,0)"/>
</g>
</svg>
