<svg xmlns="http://www.w3.org/2000/svg" viewBox="0 0 84.007 49.375"><defs><style>.a{fill:none;stroke:#fff;stroke-width:3px;}.b{fill:#fff;}</style></defs><g transform="translate(-3279.806 -1138.5)"><path class="a" d="M-37.093,38.243-39.558,32.9h-22.05l-2.465,5.338A14.318,14.318,0,0,1-82.7,45.133a13.423,13.423,0,0,1-7.391-7.453,13.423,13.423,0,0,1,.232-10.494l5.75-12.421a13.547,13.547,0,0,1,1.888-2.989A16.457,16.457,0,0,1-66.431,0h32.9A16.452,16.452,0,0,1-17.186,14.5l.125.268,5.736,12.421a13.423,13.423,0,0,1,.232,10.494,13.423,13.423,0,0,1-7.391,7.453,14.51,14.51,0,0,1-5.727,1.177,14.135,14.135,0,0,1-12.882-8.072Z" transform="translate(3372.4 1140)"/><path class="b" d="M-87.526,13.423V8.949H-92V4.474h4.474V0h4.474V4.474h4.474V8.949h-4.474v4.474Z" transform="translate(3391.445 1148.949)"/><circle class="b" cx="6.712" cy="6.712" r="6.712" transform="translate(3330.766 1148.949)"/></g></svg>