<svg xmlns="http://www.w3.org/2000/svg" viewBox="0 0 19.073 19.625">
  <defs>
    <style>
      .cls-1 {
        fill: none;
        stroke: #000;
        stroke-linecap: round;
        stroke-linejoin: round;
      }
    </style>
  </defs>
  <g id="Gruppe_21" data-name="Gruppe 21" transform="translate(-0.374 -0.125)">
    <path id="Pfad_16" data-name="Pfad 16" class="cls-1" d="M191,8.419s-1.667-1.372-.667-2.343,1.1-2.629.286-3.2" transform="translate(-180.977 0.06)"/>
    <path id="Pfad_17" data-name="Pfad 17" class="cls-1" d="M191.4,10.729s-2.338-1.943-.935-3.32,1.536-3.725.4-4.534" transform="translate(-178.271 -2.25)"/>
    <path id="Vereinigungsmenge_7" data-name="Vereinigungsmenge 7" class="cls-1" d="M-173.205,9.774c-3.009-.035-5.292-1.67-6.788-4.859A16.716,16.716,0,0,1-181.3.5h15.937a16.76,16.76,0,0,1-1.184,4.46c-1.393,3.194-3.6,4.813-6.561,4.813Zm-10.232-6.025c.064-1.667,2.231-1.628,2.231-1.628l1.776,4.414S-183.5,5.416-183.437,3.749Z" transform="translate(184.313 9.476)"/>
  </g>
</svg>
