<svg xmlns="http://www.w3.org/2000/svg" viewBox="0 0 18.816 19.526"><defs><style>.a,.b,.c,.e{fill:none;}.a,.b,.c{stroke:#000;}.a,.c{stroke-linecap:round;}.a{stroke-linejoin:round;}.d{stroke:none;}</style></defs><g transform="translate(-0.917 -1.167)"><path class="a" d="M142.976,6.833,139.417,19.7l12.32-6.023Z" transform="translate(-138 0.492)"/><circle cx="1.095" cy="1.095" r="1.095" transform="translate(5.341 10.793)"/><circle cx="0.548" cy="0.548" r="0.548" transform="translate(4.246 14.078)"/><circle cx="0.548" cy="0.548" r="0.548" transform="translate(9.722 12.983)"/><g class="b" transform="translate(5.341 3.127)"><circle class="d" cx="1.643" cy="1.643" r="1.643"/><circle class="e" cx="1.643" cy="1.643" r="1.143"/></g><g class="b" transform="translate(15.197 5.317)"><circle class="d" cx="1.643" cy="1.643" r="1.643"/><circle class="e" cx="1.643" cy="1.643" r="1.143"/></g><path class="c" d="M148,11.031S147.86,3.937,152.928,3" transform="translate(-136.088 -1.333)"/><path class="c" d="M0,4.562S-.091.532,3.224,0" transform="translate(17.001 8.287) rotate(51)"/><path class="c" d="M147.087,1.166s1.551,1.1.639,1.257,0,1.335,0,1.335.183,1.02-.639.942,0,1.1,0,1.1-.366,1.1-1,1.021" transform="translate(-137.366 1.048)"/><circle cx="1.095" cy="1.095" r="1.095" transform="translate(15.197 12.983)"/></g></svg>