<svg xmlns="http://www.w3.org/2000/svg" viewBox="0 0 18.093 10.35"><defs><style>.a{fill:none;}.b,.c{stroke:none;}</style></defs><g transform="translate(-0.953 -5)"><g class="a" transform="translate(92 5)"><path class="b" d="M-78.985,8.547l-.551-1.193h-4.928l-.551,1.193a3.2,3.2,0,0,1-4.162,1.54,3,3,0,0,1-1.6-4.011L-89.492,3.3a3.027,3.027,0,0,1,.422-.668A3.678,3.678,0,0,1-85.542,0h7.354a3.677,3.677,0,0,1,3.652,3.241l.028.06,1.282,2.776a3,3,0,0,1-1.6,4.011,3.243,3.243,0,0,1-1.28.263A3.159,3.159,0,0,1-78.985,8.547Z"/><path class="c" d="M -76.10420989990234 9.35045051574707 C -75.79833221435547 9.350430488586426 -75.50031280517578 9.28911018371582 -75.2188720703125 9.168380737304688 C -74.68607330322266 8.939519882202148 -74.28270721435547 8.526740074157715 -74.08309936523438 8.006080627441406 C -73.89398193359375 7.512800216674805 -73.91222381591797 6.976290225982666 -74.13459014892578 6.495110511779785 L -75.41609191894531 3.719730377197266 C -75.42230987548828 3.706270217895508 -75.42871856689453 3.692820310592651 -75.43521118164062 3.679550409317017 L -75.50983428955078 3.526820182800293 L -75.52980041503906 3.358020305633545 C -75.68881225585938 2.01373028755188 -76.83176422119141 1.000000357627869 -78.18840026855469 1.000000357627869 L -85.54229736328125 1.000000357627869 C -86.72051239013672 1.000000357627869 -87.77642059326172 1.787750244140625 -88.11009216308594 2.915670394897461 L -88.16861724853516 3.113530397415161 L -88.30068969726562 3.272060394287109 C -88.41416168212891 3.408260345458984 -88.50939178466797 3.558900356292725 -88.58361053466797 3.719510316848755 L -89.86534118652344 6.495400428771973 C -90.08773040771484 6.976630210876465 -90.10601806640625 7.513400077819824 -89.91684722900391 8.006830215454102 C -89.71736907958984 8.52716064453125 -89.31427764892578 8.939670562744141 -88.78225708007812 9.168190002441406 C -88.50032806396484 9.289140701293945 -88.20233154296875 9.350460052490234 -87.89653778076172 9.35045051574707 C -87.04067993164062 9.35045051574707 -86.26589202880859 8.870530128479004 -85.92268371582031 8.127850532531738 L -85.37167358398438 6.93535041809082 L -85.10342407226562 6.354800224304199 L -84.46389007568359 6.354800224304199 L -79.53591156005859 6.354800224304199 L -78.89637756347656 6.354800224304199 L -78.62812805175781 6.93535041809082 L -78.07694244384766 8.128250122070312 C -77.73423004150391 8.870779991149902 -76.95989990234375 9.350530624389648 -76.10423278808594 9.35045051574707 L -76.10420989990234 9.35045051574707 M -87.89654541015625 10.35045433044434 C -88.32481384277344 10.35045719146729 -88.75999450683594 10.26587009429932 -89.17649841308594 10.08720016479492 C -90.76679992675781 9.40410041809082 -91.48139953613281 7.60860013961792 -90.77310180664062 6.075900077819824 L -89.49150085449219 3.300300359725952 C -89.37828063964844 3.055300235748291 -89.23541259765625 2.831730365753174 -89.06900787353516 2.631990194320679 C -88.6187744140625 1.110030293464661 -87.21046447753906 2.983093168040796e-07 -85.54229736328125 2.983093168040796e-07 L -78.18840026855469 2.983093168040796e-07 C -76.30487823486328 2.983093168040796e-07 -74.75263214111328 1.415200352668762 -74.53672027587891 3.24055027961731 C -74.52708435058594 3.26028037071228 -74.51754760742188 3.280280351638794 -74.50830078125 3.300300359725952 L -73.22669982910156 6.075900077819824 C -72.51840209960938 7.60860013961792 -73.23390197753906 9.40410041809082 -74.82420349121094 10.08720016479492 C -75.24060821533203 10.26583003997803 -75.67598724365234 10.35041999816895 -76.10414123535156 10.35045051574707 C -77.3111572265625 10.35056018829346 -78.46273040771484 9.678680419921875 -78.98490142822266 8.547300338745117 L -79.53591156005859 7.354800224304199 L -84.46389007568359 7.354800224304199 L -85.01490020751953 8.547300338745117 C -85.53769683837891 9.678583145141602 -86.68958282470703 10.35044574737549 -87.89654541015625 10.35045433044434 Z"/></g><path d="M-91,3V2h-1V1h1V0h1V1h1V2h-1V3Z" transform="translate(97 7)"/><circle cx="1.5" cy="1.5" r="1.5" transform="translate(12 7)"/></g></svg>